<svg width="35" height="35" viewBox="0 0 35 35" fill="none" xmlns="http://www.w3.org/2000/svg">
<path d="M12.3931 5.60437C12.6533 5.60437 12.9088 5.67402 13.1331 5.80609C13.3574 5.93815 13.5422 6.12782 13.6684 6.35541L15.4519 9.56812C15.5669 9.77536 15.6297 10.0075 15.6348 10.2445C15.6399 10.4814 15.5871 10.716 15.4811 10.928L13.7632 14.3653C13.7632 14.3653 14.2612 16.9254 16.3452 19.0101C18.4299 21.0941 20.9812 21.5841 20.9812 21.5841L24.4178 19.8654C24.6298 19.7593 24.8646 19.7065 25.1017 19.7115C25.3388 19.7166 25.5711 19.7795 25.7784 19.8946L29.0013 21.6869C29.2284 21.8133 29.4176 21.9982 29.5492 22.2222C29.6809 22.4463 29.7503 22.7015 29.7502 22.9615V26.6605C29.7502 28.5447 28.0002 29.9053 26.2152 29.303C22.5489 28.0656 16.8578 25.7104 13.2506 22.1032C9.64413 18.496 7.28819 12.8056 6.05152 9.13864C5.44923 7.35437 6.80986 5.60437 8.69402 5.60437H12.3924H12.3931Z" stroke="#FFFDFD" stroke-width="1.67" stroke-linejoin="round"/>
<rect width="35" height="35" stroke="black"/>
</svg>
