<svg width="133" height="133" viewBox="0 0 133 133" fill="none" xmlns="http://www.w3.org/2000/svg">
<path d="M97.8479 16.6307L116.278 35.0613M105.799 83.094V116.28C105.799 120.449 104.142 124.448 101.194 127.396C98.2464 130.344 94.248 132 90.0788 132H16.7198C12.5506 132 8.55225 130.344 5.60422 127.396C2.65619 124.448 1 120.449 1 116.28V42.9212C1 38.752 2.65619 34.7536 5.60422 31.8056C8.55225 28.8576 12.5506 27.2014 16.7198 27.2014H49.906M97.8479 16.6307L109.634 4.83736C112.091 2.38034 115.424 1 118.898 1C122.373 1 125.706 2.38034 128.163 4.83736C130.62 7.29437 132 10.6268 132 14.1016C132 17.5763 130.62 20.9087 128.163 23.3658L53.9722 97.5562C50.2786 101.248 45.7236 103.961 40.7187 105.451L21.9597 111.04L27.549 92.2813C29.0391 87.2764 31.7523 82.7214 35.4438 79.0278L97.8479 16.6307V16.6307Z" stroke="#E75B36" stroke-width="2" stroke-linecap="round" stroke-linejoin="round"/>
</svg>
