<svg width="146" height="146" viewBox="0 0 146 146" fill="none" xmlns="http://www.w3.org/2000/svg">
<path d="M61.375 2H13.875C10.7256 2 7.7051 3.25111 5.47811 5.47811C3.25111 7.7051 2 10.7256 2 13.875V100.958C2 104.108 3.25111 107.128 5.47811 109.355C7.7051 111.582 10.7256 112.833 13.875 112.833H132.625C135.774 112.833 138.795 111.582 141.022 109.355C143.249 107.128 144.5 104.108 144.5 100.958V61.375M73.25 112.833V144.5" stroke="#E75B36" stroke-width="2.66667" stroke-linecap="round" stroke-linejoin="round"/>
<path d="M104.917 2L89.0837 17.8333L104.917 33.6667M128.667 2L144.5 17.8333L128.667 33.6667M33.667 144.5H112.834" stroke="#E75B36" stroke-width="2.66667" stroke-linecap="round" stroke-linejoin="round"/>
</svg>
