<svg width="146" height="145" viewBox="0 0 146 145" fill="none" xmlns="http://www.w3.org/2000/svg">
<path d="M4.82834 42.6134V45.1753L6.56391 43.2908L26.3045 21.8567C26.3049 21.8563 26.3053 21.8558 26.3057 21.8553C38.7261 8.48781 55.5161 1 73 1C90.4771 1 107.261 8.48206 119.68 21.84C120.034 22.2621 120.24 22.8254 120.24 23.4223C120.24 24.0202 120.033 24.5845 119.678 25.0069C119.498 25.2015 119.289 25.3518 119.065 25.4534C118.836 25.5569 118.594 25.6089 118.352 25.6089C118.109 25.6089 117.867 25.5569 117.639 25.4534C117.41 25.3498 117.197 25.1955 117.015 24.9952L117.008 24.988C105.332 12.4152 89.5107 5.34054 73 5.34054C56.4893 5.34054 40.668 12.4152 28.9918 24.988L28.9902 24.9897L9.24671 46.3482L7.69486 48.027H9.98104H37.8842C38.3654 48.027 38.8444 48.233 39.2105 48.6291C39.5791 49.0279 39.7984 49.5844 39.7984 50.1795C39.7984 50.7747 39.5791 51.3312 39.2105 51.7299C38.8444 52.126 38.3654 52.3321 37.8842 52.3321H2.91417C2.43301 52.3321 1.95401 52.126 1.58787 51.7299C1.21928 51.3312 1 50.7747 1 50.1795V12.3489C1 11.7538 1.21928 11.1973 1.58787 10.7985C1.95401 10.4025 2.43301 10.1964 2.91417 10.1964C3.39534 10.1964 3.87433 10.4025 4.24048 10.7985C4.60907 11.1973 4.82834 11.7538 4.82834 12.3489V42.6134ZM136.753 98.6194L138.305 96.9406H136.019H108.116C107.635 96.9406 107.156 96.7346 106.789 96.3385C106.421 95.9397 106.202 95.3832 106.202 94.7881C106.202 94.1929 106.421 93.6364 106.789 93.2377C107.156 92.8416 107.635 92.6355 108.116 92.6355H143.086C143.567 92.6355 144.046 92.8416 144.412 93.2377C144.781 93.6364 145 94.1929 145 94.7881V132.619C145 133.214 144.781 133.77 144.412 134.169C144.046 134.565 143.567 134.771 143.086 134.771C142.605 134.771 142.126 134.565 141.76 134.169C141.391 133.77 141.172 133.214 141.172 132.619V102.354V99.7923L139.436 101.677L119.695 123.112C119.694 123.112 119.694 123.113 119.694 123.113C107.283 136.499 90.4893 144 73 144C55.5172 144 38.7299 136.505 26.3203 123.128C25.9659 122.706 25.7596 122.142 25.7596 121.545C25.7596 120.947 25.9665 120.383 26.3219 119.961C26.5019 119.766 26.7109 119.616 26.9353 119.514C27.1638 119.411 27.4059 119.359 27.6482 119.359C27.8905 119.359 28.1326 119.411 28.3611 119.514C28.5899 119.618 28.8028 119.772 28.985 119.972L28.9918 119.98C40.668 132.552 56.4893 139.627 73 139.627C89.5107 139.627 105.332 132.552 117.008 119.98L117.01 119.978L136.753 98.6194Z" fill="#E75B36" stroke="#FFFDFD" stroke-width="2"/>
</svg>
