<svg width="135" height="114" viewBox="0 0 135 114" fill="none" xmlns="http://www.w3.org/2000/svg">
<path d="M62.9121 111.285L62.9054 111.278L10.8174 59.288L10.8173 59.2878C7.51492 55.9934 4.92018 52.0617 3.19145 47.7329C1.46272 43.4041 0.63628 38.7691 0.76257 34.1108C0.88886 29.4526 1.96523 24.8689 3.92598 20.6397C5.88654 16.411 8.69018 12.6254 12.1658 9.51421C15.4942 6.55747 19.3866 4.30192 23.6097 2.88285C27.8332 1.46363 32.3005 0.910312 36.7435 1.25611L36.7435 1.25619L36.7545 1.25689C45.8034 1.82661 54.3285 5.68856 60.7155 12.111L60.7175 12.113L67.1736 18.557L67.7034 19.0859L68.2333 18.557L76.0057 10.7991L76.0059 10.799C79.3065 7.50283 83.2457 4.91278 87.583 3.18713C91.9203 1.46148 96.5646 0.636479 101.232 0.762548C105.9 0.888617 110.493 1.96311 114.73 3.92036C118.967 5.87748 122.76 8.67613 125.877 12.1453C128.839 15.4674 131.099 19.3522 132.52 23.5668C133.942 27.7819 134.496 32.2402 134.15 36.6743L134.149 36.6855C133.578 45.7162 129.71 54.2248 123.275 60.5998L123.273 60.6018L72.5061 111.274C72.5053 111.275 72.5046 111.275 72.5039 111.276C71.2217 112.533 69.4981 113.241 67.7002 113.249L67.7034 113.999L67.6909 113.249C66.8022 113.264 65.9198 113.097 65.098 112.76C64.2762 112.422 63.5324 111.92 62.9121 111.285ZM14.4907 12.1474L14.4883 12.1496C11.3717 14.9411 8.85853 18.3381 7.10273 22.1328C5.34694 25.9275 4.38545 30.0399 4.27718 34.2185C4.16892 38.397 4.91614 42.5536 6.47309 46.4338C8.02986 50.3136 10.3634 53.8354 13.3308 56.7838C13.3312 56.7841 13.3315 56.7844 13.3318 56.7847L65.4182 108.836L65.4239 108.842C66.0329 109.438 66.8513 109.771 67.7034 109.771C68.5556 109.771 69.374 109.438 69.983 108.842L69.9883 108.837L120.823 58.0973C132.923 46.0197 134.056 26.4847 123.232 14.4592C120.436 11.3484 117.032 8.84006 113.231 7.08771C109.43 5.33536 105.31 4.37582 101.124 4.26777C96.9384 4.15972 92.7745 4.90544 88.8874 6.4593C85.0008 8.01296 81.4727 10.3419 78.5189 13.3036C78.5185 13.304 78.5181 13.3044 78.5177 13.3049L68.9304 22.8116L68.9303 22.8115L68.9205 22.8216C68.7626 22.9841 68.5736 23.1134 68.3645 23.2018C68.1554 23.2901 67.9306 23.3356 67.7034 23.3356C67.4763 23.3356 67.2515 23.2901 67.0424 23.2018C66.8333 23.1134 66.6442 22.9841 66.4864 22.8216L66.4864 22.8215L66.4782 22.8133L58.2043 14.5549L58.2042 14.5548C51.911 8.27534 43.3865 4.73359 34.4887 4.70092C27.1258 4.60659 19.9931 7.26237 14.4907 12.1474Z" fill="#E75B36" stroke="#FFFDFD" stroke-width="1.5"/>
</svg>
