<svg width="24" height="19" viewBox="0 0 24 19" fill="none" xmlns="http://www.w3.org/2000/svg">
<path d="M3.78947 0H20.2105C21.2156 0 22.1794 0.400356 22.8901 1.11299C23.6008 1.82563 24 2.79218 24 3.8V15.2C24 16.2078 23.6008 17.1744 22.8901 17.887C22.1794 18.5996 21.2156 19 20.2105 19H3.78947C2.78444 19 1.82058 18.5996 1.10991 17.887C0.399247 17.1744 0 16.2078 0 15.2V3.8C0 2.79218 0.399247 1.82563 1.10991 1.11299C1.82058 0.400356 2.78444 0 3.78947 0ZM3.78947 1.26667C3.19676 1.26567 2.62276 1.47473 2.16884 1.85693L12 8.25867L21.8312 1.85693C21.3771 1.47492 20.8032 1.26589 20.2105 1.26667H3.78947ZM12 9.76853L1.43242 2.888C1.32036 3.17892 1.26297 3.48813 1.26316 3.8V15.2C1.26316 15.8719 1.52932 16.5162 2.0031 16.9913C2.47687 17.4664 3.11945 17.7333 3.78947 17.7333H20.2105C20.8805 17.7333 21.5231 17.4664 21.9969 16.9913C22.4707 16.5162 22.7368 15.8719 22.7368 15.2V3.8C22.7368 3.47827 22.6775 3.17047 22.5676 2.888L12 9.76727V9.76853Z" fill="#FFFDFD"/>
</svg>
