<svg width="165" height="158" viewBox="0 0 165 158" fill="none" xmlns="http://www.w3.org/2000/svg">
<path d="M77.8646 4.11441C78.241 3.19329 78.8822 2.40531 79.7065 1.85072C80.5307 1.29613 81.5008 1 82.4934 1C83.4859 1 84.456 1.29613 85.2803 1.85072C86.1046 2.40531 86.7457 3.19329 87.1222 4.11441L106.038 49.7471C106.392 50.6009 106.974 51.3403 107.72 51.8837C108.466 52.4272 109.347 52.7537 110.266 52.8273L159.385 56.7737C163.827 57.1308 165.625 62.6931 162.243 65.5948L124.82 97.7546C124.121 98.3545 123.6 99.1359 123.314 100.013C123.029 100.89 122.989 101.829 123.2 102.728L134.639 150.807C134.869 151.771 134.808 152.783 134.466 153.713C134.123 154.643 133.513 155.451 132.713 156.033C131.913 156.616 130.958 156.948 129.97 156.987C128.982 157.026 128.005 156.771 127.162 156.253L85.1015 130.495C84.3159 130.014 83.4135 129.76 82.4934 129.76C81.5733 129.76 80.6709 130.014 79.8852 130.495L37.8253 156.262C36.9819 156.78 36.0045 157.035 35.0164 156.996C34.0284 156.957 33.0741 156.625 32.274 156.042C31.4739 155.46 30.8639 154.652 30.5211 153.722C30.1783 152.792 30.118 151.78 30.3479 150.816L41.7865 102.728C41.9986 101.83 41.9596 100.89 41.6738 100.013C41.3879 99.1352 40.8663 98.3539 40.1664 97.7546L2.74414 65.5948C1.99475 64.9485 1.45261 64.0944 1.18591 63.1399C0.919213 62.1853 0.93986 61.173 1.24526 60.2302C1.55065 59.2874 2.12716 58.4562 2.90228 57.8412C3.6774 57.2262 4.61652 56.8548 5.60155 56.7737L54.7205 52.8273C55.6395 52.7537 56.5206 52.4272 57.2666 51.8837C58.0126 51.3403 58.5946 50.6009 58.9487 49.7471L77.8646 4.12334V4.11441Z" stroke="#E75B36" stroke-width="2" stroke-linecap="round" stroke-linejoin="round"/>
</svg>
