<svg width="146" height="132" viewBox="0 0 146 132" fill="none" xmlns="http://www.w3.org/2000/svg">
<path d="M119.741 46.8166L119.733 46.824C118.929 47.6313 117.975 48.0417 116.667 48.0417C115.358 48.0417 114.404 47.6313 113.6 46.824L113.593 46.8167C112.785 46.0122 112.375 45.0588 112.375 43.75C112.375 42.4411 112.786 41.4831 113.596 40.6724C114.4 39.8687 115.355 39.4583 116.667 39.4583C117.979 39.4583 118.933 39.8687 119.737 40.6724C120.548 41.4831 120.958 42.4411 120.958 43.75C120.958 45.0588 120.548 46.0122 119.741 46.8166ZM6.40702 20.994L6.41063 20.9903C8.70583 18.6912 11.3758 17.5833 14.5833 17.5833H37.5521H38.8634L39.754 16.6209L51.0128 4.45411C51.4909 3.98389 52.011 3.62201 52.5799 3.35306C53.1103 3.10893 53.622 3 54.1406 3H91.6927C92.2113 3 92.7229 3.10891 93.2533 3.353C93.8223 3.62196 94.3425 3.98387 94.8206 4.45414L106.079 16.6209L106.97 17.5833H108.281H131.25C134.458 17.5833 137.131 18.6914 139.432 20.9922C141.727 23.287 142.833 25.9575 142.833 29.1667V116.667C142.833 119.876 141.726 122.55 139.43 124.85C137.13 127.144 134.458 128.25 131.25 128.25H14.5833C11.3741 128.25 8.70363 127.143 6.40882 124.848C4.10807 122.548 3 119.874 3 116.667V29.1667C3 25.9591 4.1079 23.2892 6.40702 20.994ZM131.25 119.667H134.25V116.667V29.1667V26.1667H131.25H103.043L90.6275 12.5612L89.7352 11.5833H88.4115H57.4219H56.0981L55.2058 12.5612L42.7908 26.1667H14.5833H11.5833V29.1667V116.667V119.667H14.5833H131.25ZM96.5933 96.5933C90.0462 103.135 82.2107 106.375 72.9167 106.375C63.6223 106.375 55.7894 103.135 49.2474 96.5933C42.7 90.0459 39.4583 82.2104 39.4583 72.9167C39.4583 63.6229 42.7 55.7874 49.2474 49.2401C55.7894 42.698 63.6223 39.4583 72.9167 39.4583C82.2111 39.4583 90.0468 42.6981 96.594 49.2408C103.136 55.7877 106.375 63.6229 106.375 72.9167C106.375 82.2107 103.136 90.0462 96.5933 96.5933ZM55.3006 90.5328C60.123 95.3552 66.0537 97.7917 72.9167 97.7917C79.7796 97.7917 85.7103 95.3552 90.5328 90.5328C95.3553 85.7103 97.7917 79.7796 97.7917 72.9167C97.7917 66.0537 95.3553 60.123 90.5328 55.3006C85.7103 50.4781 79.7796 48.0417 72.9167 48.0417C66.0537 48.0417 60.123 50.4781 55.3006 55.3006C50.4781 60.123 48.0417 66.0537 48.0417 72.9167C48.0417 79.7796 50.4781 85.7103 55.3006 90.5328Z" fill="#E75B36" stroke="#FFFDFD" stroke-width="6"/>
</svg>
