<svg width="124" height="124" viewBox="0 0 124 124" fill="none" xmlns="http://www.w3.org/2000/svg">
<path d="M61.9998 89.1111C69.1901 89.1111 76.0859 86.2548 81.1702 81.1705C86.2546 76.0862 89.1109 69.1903 89.1109 62C89.1109 54.8097 86.2546 47.9139 81.1702 42.8296C76.0859 37.7453 69.1901 34.8889 61.9998 34.8889C54.8095 34.8889 47.9137 37.7453 42.8293 42.8296C37.745 47.9139 34.8887 54.8097 34.8887 62C34.8887 69.1903 37.745 76.0862 42.8293 81.1705C47.9137 86.2548 54.8095 89.1111 61.9998 89.1111V89.1111Z" stroke="#E75B36" stroke-width="2" stroke-linecap="round" stroke-linejoin="round"/>
<path d="M1 89.1111V34.8889C1 25.901 4.57043 17.2812 10.9258 10.9258C17.2812 4.57043 25.901 1 34.8889 1H89.1111C98.099 1 106.719 4.57043 113.074 10.9258C119.43 17.2812 123 25.901 123 34.8889V89.1111C123 98.099 119.43 106.719 113.074 113.074C106.719 119.43 98.099 123 89.1111 123H34.8889C25.901 123 17.2812 119.43 10.9258 113.074C4.57043 106.719 1 98.099 1 89.1111Z" stroke="#E75B36" stroke-width="2"/>
<path d="M99.2783 24.79L99.3461 24.7155" stroke="#E75B36" stroke-width="3" stroke-linecap="round" stroke-linejoin="round"/>
</svg>
