<svg width="86" height="148" viewBox="0 0 86 148" fill="none" xmlns="http://www.w3.org/2000/svg">
<path d="M61.446 1.25091L61.4498 1.2509C68.4997 1.22944 75.5455 1.59105 82.5561 2.33412C83.0924 2.40778 83.5844 2.67239 83.9416 3.07964C84.3018 3.49033 84.5003 4.01803 84.5 4.5643V4.56491V28.6799C84.5 29.2766 84.2629 29.8489 83.841 30.2709C83.419 30.6929 82.8467 30.9299 82.25 30.9299H67.977C63.683 30.9299 60.723 31.6254 58.936 33.6097C57.1787 35.561 56.871 38.4353 56.871 41.8049V55.5179V56.7679H58.121H81.312H81.3126C81.6329 56.7678 81.9495 56.836 82.2413 56.968C82.5331 57.1 82.7933 57.2928 83.0046 57.5335C83.2159 57.7742 83.3734 58.0572 83.4665 58.3636C83.5596 58.6701 83.5863 58.9929 83.5446 59.3104L83.5443 59.3129L80.0656 86.2604C80.0656 86.2607 80.0655 86.2611 80.0655 86.2614C79.9943 86.8027 79.7287 87.2995 79.3183 87.6595C78.9076 88.0197 78.3799 88.2182 77.8336 88.2179H77.833H58.121H56.871V89.4679V143.508C56.871 144.105 56.6339 144.677 56.212 145.099C55.79 145.521 55.2177 145.758 54.621 145.758H26.775C26.1783 145.758 25.606 145.521 25.184 145.099C24.762 144.677 24.525 144.105 24.525 143.508V89.4679V88.2179H23.275H3.5C2.90326 88.2179 2.33096 87.9809 1.90901 87.5589C1.48705 87.1369 1.25 86.5646 1.25 85.9679V59.0179C1.25 58.4212 1.48705 57.8489 1.90901 57.4269C2.33096 57.005 2.90326 56.7679 3.5 56.7679H23.275H24.525V55.5179V39.1309C24.525 27.3159 28.1015 17.8722 34.4274 11.3878C40.7498 4.90692 49.9464 1.25091 61.446 1.25091ZM78.7508 26.4229L80 26.4221V25.1729V7.72191V6.57589L78.8583 6.47661C74.964 6.13797 68.5504 5.75091 61.446 5.75091C51.428 5.75091 43.2828 8.84003 37.6448 14.6512C32.0116 20.4576 29.025 28.8333 29.025 39.1309V59.0249C29.025 59.6216 28.7879 60.1939 28.366 60.6159C27.944 61.0378 27.3717 61.2749 26.775 61.2749H7.007H5.757V62.5249V82.4749V83.7249H7.007H26.775C27.3717 83.7249 27.944 83.962 28.366 84.3839C28.7879 84.8059 29.025 85.3782 29.025 85.9749V140.001V141.251H30.275H51.121H52.371V140.001V85.9749C52.371 85.3782 52.6081 84.8059 53.03 84.3839C53.452 83.962 54.0243 83.7249 54.621 83.7249H74.753H75.8516L75.9927 82.6354L78.5757 62.6854L78.7583 61.2749H77.336L54.6165 61.2749C54.616 61.2749 54.6154 61.2749 54.6149 61.2749C54.0195 61.2733 53.449 61.0358 53.0284 60.6143C52.6074 60.1925 52.371 59.6209 52.371 59.0249V41.8049C52.371 38.2936 52.8138 34.4744 54.9016 31.5426C56.9273 28.6981 60.6988 26.4299 67.97 26.4299H67.9708L78.7508 26.4229Z" fill="#E75B36" stroke="#FFFDFD" stroke-width="2.5"/>
</svg>
