<svg width="189" height="181" viewBox="0 0 189 181" fill="none" xmlns="http://www.w3.org/2000/svg">
<path d="M63.6175 175.364L63.6183 175.336V175.307C63.6183 175.23 63.6216 174.492 63.6275 173.195C63.695 158.35 64.0953 70.2442 63.6159 60.4849L63.6152 60.4721C63.5721 59.695 63.8514 58.9419 64.3922 58.3795C64.9492 57.8003 65.6906 57.4758 66.5032 57.4758H104.733C106.329 57.4758 107.617 58.7637 107.617 60.3607V63.2473V67.7074L110.948 64.7407C117.041 59.313 125.862 54.774 139.187 54.774C153.999 54.774 165.633 59.8778 173.594 69.097C181.587 78.3545 186.074 91.9928 186.074 109.396V175.307C186.074 176.904 184.786 178.192 183.189 178.192H144.997C143.4 178.192 142.112 176.904 142.112 175.307V113.8C142.112 102.95 139.312 96.9754 135.502 93.8049C131.776 90.7043 127.544 90.7051 125.699 90.7055H125.642C114.698 90.7055 110.103 99.3831 108.695 102.858C107.898 104.746 107.617 107.621 107.617 111.136V175.345C107.617 176.942 106.329 178.229 104.733 178.229H66.5033C65.7381 178.229 64.9885 177.922 64.4387 177.372C63.8876 176.821 63.5968 176.088 63.6175 175.364ZM149.873 172.422H149.882L178.341 172.421L180.341 172.421V170.421V109.395C180.341 94.2099 176.712 81.9813 169.644 73.5159C162.532 64.9982 152.148 60.5436 139.224 60.5436C130.559 60.5436 124.01 62.7118 118.94 65.9515C113.892 69.1771 110.424 73.3916 107.807 77.3088L107.638 77.561L107.552 77.8519C107.208 79.0137 106.091 79.899 104.769 79.899H104.511C103.462 79.899 102.509 79.3332 102.01 78.4237C101.595 77.6628 101.526 76.8383 101.776 76.1081L101.885 75.7928V75.4594V65.2085V63.2085H99.8845H71.4995H69.4739L69.4996 65.2339C69.7584 85.6037 69.4995 151.565 69.4255 170.377L69.4176 172.385H71.4255H99.8475H101.847V170.385V111.098C101.847 106.283 102.36 103.032 103.326 100.682L103.33 100.671C107.344 90.7402 115.682 84.8985 125.605 84.8985C132.767 84.8985 138.215 87.4877 141.925 92.211C145.689 97.0026 147.845 104.222 147.845 113.763V170.422V172.413L149.836 172.422L149.873 172.422ZM10.028 170.422L10.028 172.422H12.028H40.4868H42.4868V170.422V65.245V63.245H40.4868H12.0281H10.0281L10.0281 65.245L10.028 170.422ZM26.0179 47.5536H26.0165C11.967 47.5536 2 37.9231 2 24.7584C2 11.667 12.1135 2 26.5346 2C40.655 2 50.4915 11.3381 50.7735 24.6677C50.7631 37.9057 40.6432 47.5532 26.2771 47.5538C26.2767 47.5538 26.2762 47.5538 26.2758 47.5538L26.0179 47.5536ZM45.0032 24.7954V24.775L45.0028 24.7546C44.9003 19.7329 43.0402 15.4447 39.7243 12.423C36.4219 9.41349 31.8395 7.80721 26.5346 7.80721C21.1239 7.80721 16.4278 9.43793 13.058 12.4522C9.66884 15.4839 7.77013 19.7865 7.77013 24.7956C7.77013 29.7285 9.64778 34.0177 12.9417 37.0614C16.2242 40.0947 20.7928 41.7837 26.0167 41.7837H26.2756C31.6696 41.7837 36.3565 40.1519 39.721 37.1376C43.1046 34.1062 45.0032 29.8043 45.0032 24.7954ZM45.3719 178.191H7.14271C5.54571 178.191 4.25784 176.903 4.25784 175.306V60.3603C4.25784 58.7632 5.5458 57.4752 7.14271 57.4752H45.3719C46.9689 57.4752 48.2568 58.7632 48.2568 60.3601V175.307C48.2568 176.903 46.969 178.191 45.3719 178.191Z" fill="#E75B36" stroke="#FFFDFD" stroke-width="4"/>
</svg>
