<svg width="140" height="122" viewBox="0 0 140 122" fill="none" xmlns="http://www.w3.org/2000/svg">
<path d="M118.799 20.7429L118.803 20.7473C125.261 27.085 130.382 34.6465 133.868 42.9873C137.353 51.3281 139.132 60.2799 139.1 69.3163V69.3196L139.1 108.132C139.1 108.133 139.1 108.134 139.1 108.135C139.082 111.568 137.707 114.855 135.274 117.282C132.84 119.71 129.544 121.083 126.101 121.1C126.1 121.1 126.1 121.1 126.099 121.1L114.987 121.1C111.54 121.1 108.234 119.734 105.797 117.302C103.36 114.871 101.991 111.574 101.991 108.137V80.4102C101.991 76.9728 103.36 73.6758 105.797 71.2445C108.234 68.8132 111.54 67.4469 114.987 67.4469H134.372H135.312L135.271 66.5077C134.541 49.7741 127.333 33.9758 115.164 22.4382C102.997 10.9023 86.8188 4.52535 70.035 4.64852C53.239 4.50706 37.0434 10.8759 24.8609 22.4136C12.6766 33.9532 5.45849 49.7618 4.72863 66.5077L4.68769 67.4469H5.62777H25.0109C28.4531 67.4648 31.7488 68.8369 34.1823 71.2647C36.6158 73.6925 37.9904 76.9799 38.0081 80.4124V108.135C37.9904 111.567 36.6158 114.854 34.1823 117.282C31.7485 119.71 28.4521 121.083 25.0094 121.1C25.0089 121.1 25.0084 121.1 25.0079 121.1H13.9002C13.8997 121.1 13.8992 121.1 13.8987 121.1C10.4559 121.083 7.1596 119.71 4.7258 117.282C2.29223 114.854 0.917656 111.567 0.9 108.134V69.3196C0.89971 60.289 2.69145 51.3478 6.17194 43.0114C9.65242 34.675 14.7528 27.1084 21.1791 20.7481C27.6053 14.3877 35.2303 9.35949 43.6142 5.95344C51.9981 2.54739 60.9751 0.830964 70.0273 0.903215L70.0353 0.903279L70.0432 0.903202C79.0834 0.815641 88.0504 2.5249 96.4213 5.93122C104.792 9.33753 112.399 14.3727 118.799 20.7429ZM5.55829 71.1922H4.65829V72.0922V108.137C4.65829 110.582 5.63203 112.927 7.36462 114.656C9.09714 116.384 11.4465 117.355 13.8957 117.355H25.0123C27.4616 117.355 29.8109 116.384 31.5434 114.656C33.276 112.927 34.2498 110.582 34.2498 108.137V80.4102C34.2498 77.9648 33.276 75.6199 31.5434 73.8914C29.8109 72.1629 27.4616 71.1922 25.0123 71.1922H5.55829ZM135.341 72.0922V71.1922H134.441H114.987C112.538 71.1922 110.189 72.1629 108.456 73.8914C106.724 75.6199 105.75 77.9648 105.75 80.4102V108.137C105.75 110.582 106.724 112.927 108.456 114.656C110.189 116.384 112.538 117.355 114.987 117.355H126.104C128.553 117.355 130.902 116.384 132.635 114.656C134.368 112.927 135.341 110.582 135.341 108.137V72.0922Z" fill="#E75B36" stroke="#FFFDFD" stroke-width="1.8"/>
</svg>
