<svg width="136" height="136" viewBox="0 0 136 136" fill="none" xmlns="http://www.w3.org/2000/svg">
<path d="M134 134L90.9565 90.9565M2 53.6522C2 60.4352 3.33602 67.1519 5.93179 73.4186C8.52755 79.6853 12.3322 85.3794 17.1286 90.1758C21.9249 94.9721 27.619 98.7768 33.8857 101.373C40.1525 103.968 46.8691 105.304 53.6522 105.304C60.4352 105.304 67.1519 103.968 73.4186 101.373C79.6853 98.7768 85.3794 94.9721 90.1758 90.1758C94.9721 85.3794 98.7768 79.6853 101.373 73.4186C103.968 67.1519 105.304 60.4352 105.304 53.6522C105.304 39.9532 99.8624 26.8152 90.1758 17.1286C80.4891 7.44191 67.3512 2 53.6522 2C39.9532 2 26.8152 7.44191 17.1286 17.1286C7.44191 26.8152 2 39.9532 2 53.6522V53.6522Z" stroke="#E75B36" stroke-width="2.5" stroke-linecap="round" stroke-linejoin="round"/>
</svg>
