<svg width="195" height="195" viewBox="0 0 195 195" fill="none" xmlns="http://www.w3.org/2000/svg">
<path d="M69.0466 31.2244C70.4966 31.2244 71.9201 31.6124 73.1696 32.3482C74.419 33.084 75.4487 34.1407 76.1519 35.4087L86.0888 53.3081C86.7295 54.4627 87.0792 55.7561 87.1075 57.0763C87.1358 58.3965 86.842 59.7037 86.2513 60.8847L76.6801 80.0353C76.6801 80.0353 79.4548 94.2987 91.0654 105.913C102.68 117.524 116.895 120.254 116.895 120.254L136.041 110.679C137.223 110.087 138.531 109.793 139.852 109.821C141.173 109.85 142.467 110.2 143.622 110.841L161.578 120.827C162.843 121.531 163.897 122.561 164.631 123.81C165.364 125.058 165.751 126.48 165.75 127.928V148.537C165.75 159.035 156 166.615 146.055 163.26C125.629 156.366 93.9213 143.244 73.8241 123.147C53.731 103.049 40.6051 71.3456 33.7151 50.9153C30.3594 40.9744 37.9401 31.2244 48.4376 31.2244H69.0426H69.0466Z" stroke="#E75B36" stroke-width="2.66667" stroke-linejoin="round"/>
</svg>
