<?xml version="1.0" encoding="UTF-8"?><svg id="Layer_1" xmlns="http://www.w3.org/2000/svg" width="45.64mm" height="7.38mm" viewBox="0 0 129.36 20.91"><defs><style>.cls-1{fill:#070b08;}</style></defs><g><rect class="cls-1" x="96.81" y=".29" width="14.55" height="2.82" rx=".28" ry=".28"/><rect class="cls-1" x="96.81" y="17.8" width="14.55" height="2.82" rx=".28" ry=".28"/><rect class="cls-1" x="96.81" y="9.05" width="14.55" height="2.82" rx=".28" ry=".28"/></g><path class="cls-1" d="M44.2,0c5.72,0,10.29,4.68,10.29,10.49s-4.57,10.43-10.29,10.43-10.26-4.62-10.26-10.43S38.48,0,44.2,0Zm0,18.01c4.09,0,7.43-3.37,7.43-7.52s-3.34-7.58-7.43-7.58-7.4,3.46-7.4,7.58,3.34,7.52,7.4,7.52Z"/><path class="cls-1" d="M66.41,0c5.72,0,10.29,4.68,10.29,10.49s-4.57,10.43-10.29,10.43-10.26-4.62-10.26-10.43S60.69,0,66.41,0Zm0,18.01c4.09,0,7.43-3.37,7.43-7.52s-3.34-7.58-7.43-7.58-7.4,3.46-7.4,7.58,3.34,7.52,7.4,7.52Z"/><path class="cls-1" d="M114.55,.84c0-.29,.23-.55,.55-.55h7.9c3.49,0,6.35,2.39,6.35,5.85,0,3.23-2.32,4.74-4.06,5.27l3.72,8.38c.2,.38,0,.84-.49,.84h-2.27c-.23,0-.41-.15-.46-.26l-3.86-8.5h-4.39v8.21c0,.29-.26,.55-.55,.55h-1.89c-.32,0-.55-.26-.55-.55V.84Zm8.22,8.2c1.89,0,3.54-.91,3.54-2.91,0-1.89-1.66-3.03-3.54-3.03h-5.17v5.94h5.17Z"/><path class="cls-1" d="M17.21,.84c0-.29,.23-.55,.55-.55h7.9c3.49,0,6.35,2.39,6.35,5.85,0,3.23-2.32,4.74-4.06,5.27l3.72,8.38c.2,.38,0,.84-.49,.84h-2.27c-.23,0-.41-.15-.46-.26l-3.86-8.5h-4.39v8.21c0,.29-.26,.55-.55,.55h-1.89c-.32,0-.55-.26-.55-.55V.84Zm8.22,8.2c1.89,0,3.54-.91,3.54-2.91,0-1.89-1.66-3.03-3.54-3.03h-5.17v5.94h5.17Z"/><path class="cls-1" d="M79.53,.84c0-.29,.23-.55,.55-.55h7.9c3.49,0,6.33,2.39,6.33,5.85,0,2.67-1.86,5.73-7.39,5.73h-4.39l-.02,8.2c0,.29-.26,.55-.55,.55h-1.89c-.32,0-.55-.26-.55-.55V.84Zm8.22,8.21c1.89,0,3.54-.91,3.54-2.91,0-1.89-1.66-3.03-3.54-3.03h-5.17v5.94h5.17Z"/><path class="cls-1" d="M14.25,.29H.27C.12,.29-.01,.42-.01,.57V2.82c0,.16,.13,.28,.28,.28H5.75V20.07c0,.29,.26,.55,.55,.55h1.92c.29,0,.55-.26,.55-.55V3.11h5.48c.16,0,.28-.13,.28-.28V.57c0-.16-.13-.28-.28-.28Z"/></svg>