<?xml version="1.0" encoding="UTF-8"?><svg id="Layer_1" xmlns="http://www.w3.org/2000/svg" width="160.87mm" height="72.15mm" viewBox="0 0 456.02 204.52"><defs><style>.cls-1{fill:#d85a3b;}</style></defs><g><rect class="cls-1" x="340.46" y="76.79" width="50.89" height="9.86" rx=".99" ry=".99"/><rect class="cls-1" x="340.46" y="138.06" width="50.89" height="9.86" rx=".99" ry=".99"/><rect class="cls-1" x="340.46" y="107.43" width="50.89" height="9.86" rx=".99" ry=".99"/></g><path class="cls-1" d="M156.39,75.78c20,0,36,16.36,36,36.68s-16,36.48-36,36.48-35.9-16.16-35.9-36.48,15.9-36.68,35.9-36.68Zm0,63c14.3,0,26-11.79,26-26.32s-11.7-26.52-26-26.52-25.9,12.09-25.9,26.52,11.7,26.32,25.9,26.32Z"/><path class="cls-1" d="M234.1,75.78c20,0,36,16.36,36,36.68s-16,36.48-36,36.48-35.9-16.16-35.9-36.48,15.9-36.68,35.9-36.68Zm0,63c14.3,0,26-11.79,26-26.32s-11.7-26.52-26-26.52-25.9,12.09-25.9,26.52,11.7,26.32,25.9,26.32Z"/><path class="cls-1" d="M402.51,78.73c0-1.02,.81-1.93,1.93-1.93h27.64c12.2,0,22.2,8.36,22.2,20.45,0,11.29-8.12,16.6-14.19,18.42l13.03,29.31c.71,1.32,0,2.95-1.73,2.95h-7.93c-.81,0-1.42-.51-1.63-.91l-13.52-29.72h-15.34v28.71c0,1.02-.91,1.93-1.93,1.93h-6.61c-1.12,0-1.93-.91-1.93-1.93V78.73Zm28.76,28.7c6.6,0,12.39-3.17,12.39-10.18,0-6.61-5.79-10.6-12.39-10.6h-18.09v20.78h18.09Z"/><path class="cls-1" d="M62,78.73c0-1.02,.81-1.93,1.93-1.93h27.64c12.2,0,22.2,8.36,22.2,20.45,0,11.29-8.12,16.6-14.19,18.42l13.03,29.31c.71,1.32,0,2.95-1.73,2.95h-7.93c-.81,0-1.42-.51-1.63-.91l-13.52-29.72h-15.34v28.71c0,1.02-.91,1.93-1.93,1.93h-6.61c-1.12,0-1.93-.91-1.93-1.93V78.73Zm28.76,28.7c6.6,0,12.39-3.17,12.39-10.18,0-6.61-5.79-10.6-12.39-10.6h-18.09v20.78h18.09Z"/><path class="cls-1" d="M280.01,78.72c0-1.02,.81-1.93,1.93-1.93h27.64c12.2,0,22.15,8.36,22.15,20.46,0,9.35-6.5,20.04-25.86,20.04h-15.34l-.05,28.7c0,1.02-.91,1.93-1.93,1.93h-6.61c-1.12,0-1.93-.91-1.93-1.93V78.72Zm28.76,28.71c6.6,0,12.39-3.17,12.39-10.18,0-6.61-5.79-10.6-12.39-10.6h-18.09v20.78h18.09Z"/><path class="cls-1" d="M51.64,76.79H2.74c-.55,0-.99,.44-.99,.99v7.88c0,.55,.44,.99,.99,.99H21.91v59.34c0,1.02,.91,1.93,1.93,1.93h6.71c1.02,0,1.93-.91,1.93-1.93v-59.34h19.17c.55,0,.99-.44,.99-.99v-7.88c0-.55-.44-.99-.99-.99Z"/></svg>